<svg xmlns="http://www.w3.org/2000/svg" width="128" height="128" viewBox="0 0 128 128">
  <style>
    @media (prefers-color-scheme: light) {
      path {
        fill: black;
      }
    }
    @media (prefers-color-scheme: dark) {
      path {
          fill: white;
      }
    }
  </style>
  <path id="M" class="markdown" d="M62.818,70.481q-0.856-4.869-1.645-9.673t-1.579-9.476q-0.79-4.672-1.481-9.081t-1.382-8.522q-0.691-4.112-1.283-7.8-0.922-4.672-3.224-6.515a8.982,8.982,0,0,0-5.791-1.842H27.217A5.905,5.905,0,0,0,23.4,18.693a3.94,3.94,0,0,0-1.448,3.093,3.21,3.21,0,0,0,.658,2.073,5.141,5.141,0,0,0,2.04,1.415l3.29,1.053a3.009,3.009,0,0,1,2.04,1.777,6.658,6.658,0,0,1-.395,3.948l-15,54.42a59.75,59.75,0,0,1-2.928,8.489,13.4,13.4,0,0,1-2.665,4.113,8.635,8.635,0,0,1-2.961,1.81l-2.3.789a7.8,7.8,0,0,0-2.5,1.612,3.853,3.853,0,0,0-1.119,2.731,3.7,3.7,0,0,0,.987,2.632Q2.08,109.7,4.712,109.7H24.585a6.029,6.029,0,0,0,3.981-1.184,4.037,4.037,0,0,0,1.481-3.093q0.065-2.237-2.632-3.488l-2.5-.855a5.024,5.024,0,0,1-3.06-3.093q-0.757-2.172.23-6.054L37.549,36.394l-2.3.461q0.79,5.33,1.612,10.726T38.5,58.241q0.822,5.265,1.579,10.331T41.53,78.41q0.691,4.772,1.349,9.081t1.25,8a10.7,10.7,0,0,0,2.4,5.264,5.163,5.163,0,0,0,3.85,1.777,7.866,7.866,0,0,0,4.606-1.284,17.9,17.9,0,0,0,4.146-4.77l35.6-59.356-1.777.066q-0.79,4.935-1.744,10.1t-1.941,10.4q-0.987,5.231-2.007,10.364T85.29,77.983q-0.955,4.8-1.777,9.114T82.032,94.96a11.159,11.159,0,0,1-1.513,4.047,5.256,5.256,0,0,1-2.566,1.876L74.6,101.8a6.765,6.765,0,0,0-2.4,1.546,3.983,3.983,0,0,0-.1,5.363,4.989,4.989,0,0,0,3.553.987h32.376a5.758,5.758,0,0,0,3.915-1.184,4.124,4.124,0,0,0,1.415-3.093,3.113,3.113,0,0,0-.691-2.073A4.942,4.942,0,0,0,110.591,102l-3.356-.987a3.054,3.054,0,0,1-1.875-1.908,6.75,6.75,0,0,1-.1-3.488q0.263-1.842.987-5.725t1.678-9.081q0.954-5.2,2.073-11.022t2.271-11.746q1.151-5.922,2.2-11.22t1.842-9.377q0.791-4.079,1.185-6.186A8.886,8.886,0,0,1,118.784,28a4.313,4.313,0,0,1,2.2-1.612l3.421-.855a6.652,6.652,0,0,0,2.435-1.612,3.768,3.768,0,0,0,1.053-2.731,3.514,3.514,0,0,0-.987-2.7,5.118,5.118,0,0,0-3.488-.921h-20a11.111,11.111,0,0,0-5.232,1.415,14.826,14.826,0,0,0-5.166,5.363L55.316,84.826l9.213-4.606Q63.673,75.351,62.818,70.481Z"/>
</svg>
